<?xml version="1.0" encoding="UTF-8" standalone="no" ?>
<!DOCTYPE svg PUBLIC "-//W3C//DTD SVG 1.1//EN" "http://www.w3.org/Graphics/SVG/1.1/DTD/svg11.dtd">
<svg xmlns="http://www.w3.org/2000/svg" xmlns:xlink="http://www.w3.org/1999/xlink" version="1.1" width="1100" height="300" viewBox="0 0 1100 300" xml:space="preserve">
<desc>Created with Fabric.js 5.2.4</desc>
<defs>
</defs>
<g transform="matrix(1 0 0 1 550 150)" id="a695dbbe-f701-4f2c-adea-52f95378e242"  >
<rect style="stroke: none; stroke-width: 1; stroke-dasharray: none; stroke-linecap: butt; stroke-dashoffset: 0; stroke-linejoin: miter; stroke-miterlimit: 4; fill: rgb(255,255,255); fill-rule: nonzero; opacity: 1; visibility: hidden;" vector-effect="non-scaling-stroke"  x="-550" y="-150" rx="0" ry="0" width="1100" height="300" />
</g>
<g transform="matrix(Infinity NaN NaN Infinity 0 0)" id="11fb9be3-c6eb-4b22-ac98-493835b6f550"  >
</g>
<g transform="matrix(2.73 0 0 2.73 549.13 149.78)"  >
<g style=""   >
		<g transform="matrix(0.36 0 0 0.36 -171.62 -26.08)" id="SvgjsG1016"  >
<path style="stroke: none; stroke-width: 1; stroke-dasharray: none; stroke-linecap: butt; stroke-dashoffset: 0; stroke-linejoin: miter; stroke-miterlimit: 4; fill: rgb(255,255,255); fill-rule: nonzero; opacity: 1;" vector-effect="non-scaling-stroke"  transform=" translate(-65, -66.5)" d="M 103 28 L 103 105 L 27 105 L 27 28 L 103 28 z M 93 38 L 37 38 L 37 95 L 93 95 L 93 38 z" stroke-linecap="round" />
</g>
		<g transform="matrix(0.36 0 0 0.36 -118.38 -26.08)" id="SvgjsG1016"  >
<path style="stroke: none; stroke-width: 1; stroke-dasharray: none; stroke-linecap: butt; stroke-dashoffset: 0; stroke-linejoin: miter; stroke-miterlimit: 4; fill: rgb(255,255,255); fill-rule: nonzero; opacity: 1;" vector-effect="non-scaling-stroke"  transform=" translate(-213, -66.5)" d="M 251 28 L 251 105 L 175 105 L 175 28 L 251 28 z M 241 38 L 185 38 L 185 95 L 241 95 L 241 38 z" stroke-linecap="round" />
</g>
		<g transform="matrix(0.36 0 0 0.36 -171.62 26.26)" id="SvgjsG1016"  >
<path style="stroke: none; stroke-width: 1; stroke-dasharray: none; stroke-linecap: butt; stroke-dashoffset: 0; stroke-linejoin: miter; stroke-miterlimit: 4; fill: rgb(255,255,255); fill-rule: nonzero; opacity: 1;" vector-effect="non-scaling-stroke"  transform=" translate(-65, -212)" d="M 103 174 L 103 250 L 27 250 L 27 174 L 103 174 z M 93 184 L 37 184 L 37 240 L 93 240 L 93 184 z" stroke-linecap="round" />
</g>
		<g transform="matrix(0.36 0 0 0.36 -144.82 30.94)" id="SvgjsG1016"  >
<polygon style="stroke: none; stroke-width: 1; stroke-dasharray: none; stroke-linecap: butt; stroke-dashoffset: 0; stroke-linejoin: miter; stroke-miterlimit: 4; fill: rgb(255,255,255); fill-rule: nonzero; opacity: 1;" vector-effect="non-scaling-stroke"  points="17.5,15 17.5,3 7.5,3 7.5,15 -4.5,15 -4.5,-6 15.5,-6 15.5,-16 -17.5,-16 -17.5,-25 -27.5,-25 -26.5,-6 -14.5,-6 -14.5,5 -27.5,5 -27.5,15 -14.5,15 -14.5,25 27.5,25 27.5,15 " />
</g>
		<g transform="matrix(0.36 0 0 0.36 -183.31 -7.55)" id="SvgjsG1016"  >
<polygon style="stroke: none; stroke-width: 1; stroke-dasharray: none; stroke-linecap: butt; stroke-dashoffset: 0; stroke-linejoin: miter; stroke-miterlimit: 4; fill: rgb(255,255,255); fill-rule: nonzero; opacity: 1;" vector-effect="non-scaling-stroke"  points="5.5,5 -5.5,5 -5.5,-5 5.5,-5 " />
</g>
		<g transform="matrix(0.36 0 0 0.36 -152.55 -26.98)" id="SvgjsG1016"  >
<polygon style="stroke: none; stroke-width: 1; stroke-dasharray: none; stroke-linecap: butt; stroke-dashoffset: 0; stroke-linejoin: miter; stroke-miterlimit: 4; fill: rgb(255,255,255); fill-rule: nonzero; opacity: 1;" vector-effect="non-scaling-stroke"  points="5,5 -5,5 -5,-5 5,-5 " />
</g>
		<g transform="matrix(0.36 0 0 0.36 -152.37 -37.77)" id="SvgjsG1016"  >
<polygon style="stroke: none; stroke-width: 1; stroke-dasharray: none; stroke-linecap: butt; stroke-dashoffset: 0; stroke-linejoin: miter; stroke-miterlimit: 4; fill: rgb(255,255,255); fill-rule: nonzero; opacity: 1;" vector-effect="non-scaling-stroke"  points="5.5,5 -5.5,5 -5.5,-5 5.5,-5 " />
</g>
		<g transform="matrix(0.36 0 0 0.36 -116.94 25.54)" id="SvgjsG1016"  >
<polygon style="stroke: none; stroke-width: 1; stroke-dasharray: none; stroke-linecap: butt; stroke-dashoffset: 0; stroke-linejoin: miter; stroke-miterlimit: 4; fill: rgb(255,255,255); fill-rule: nonzero; opacity: 1;" vector-effect="non-scaling-stroke"  points="5,5 -5,5 -5,-5 5,-5 " />
</g>
		<g transform="matrix(0.36 0 0 0.36 -177.19 1.98)" id="SvgjsG1016"  >
<polygon style="stroke: none; stroke-width: 1; stroke-dasharray: none; stroke-linecap: butt; stroke-dashoffset: 0; stroke-linejoin: miter; stroke-miterlimit: 4; fill: rgb(255,255,255); fill-rule: nonzero; opacity: 1;" vector-effect="non-scaling-stroke"  points="0.5,-0.5 10.5,-0.5 10.5,-10.5 0.5,-10.5 0.5,-20.5 -9.5,-20.5 -9.5,-11.5 -21.5,-11.5 -21.5,12.5 -9.5,12.5 -9.5,20.5 21.5,20.5 21.5,1.5 10.5,1.5 10.5,10.5 0.5,10.5 " />
</g>
		<g transform="matrix(0.36 0 0 0.36 -116.04 2.34)" id="SvgjsG1016"  >
<path style="stroke: none; stroke-width: 1; stroke-dasharray: none; stroke-linecap: butt; stroke-dashoffset: 0; stroke-linejoin: miter; stroke-miterlimit: 4; fill: rgb(255,255,255); fill-rule: nonzero; opacity: 1;" vector-effect="non-scaling-stroke"  transform=" translate(-219.5, -145.5)" d="M 242 113 L 242 123 L 251 123 L 251 133 L 235 133 L 235 146 L 206 146 L 206 155 L 222 155 L 222 178 L 211 178 L 211 165 L 188 165 L 188 155 L 196 155 L 196 146 L 190 146 L 190 136 L 223 136 L 223 118 L 210 118 L 210 113 C 220 113 231 113 242 113 z" stroke-linecap="round" />
</g>
		<g transform="matrix(0.36 0 0 0.36 -162.81 -5.76)" id="SvgjsG1016"  >
<polygon style="stroke: none; stroke-width: 1; stroke-dasharray: none; stroke-linecap: butt; stroke-dashoffset: 0; stroke-linejoin: miter; stroke-miterlimit: 4; fill: rgb(255,255,255); fill-rule: nonzero; opacity: 1;" vector-effect="non-scaling-stroke"  points="31.5,0 0.5,0 0.5,10 -20.5,10 -20.5,0 -31.5,0 -31.5,-10 31.5,-10 " />
</g>
		<g transform="matrix(0.36 0 0 0.36 -150.58 -17.27)" id="SvgjsG1016"  >
<polygon style="stroke: none; stroke-width: 1; stroke-dasharray: none; stroke-linecap: butt; stroke-dashoffset: 0; stroke-linejoin: miter; stroke-miterlimit: 4; fill: rgb(255,255,255); fill-rule: nonzero; opacity: 1;" vector-effect="non-scaling-stroke"  points="-0.5,-17 -10.5,-17 -10.5,0 -10.5,17 -0.5,17 10.5,17 10.5,0 -0.5,0 " />
</g>
		<g transform="matrix(0.36 0 0 0.36 -141.04 -17.99)" id="SvgjsG1016"  >
<polygon style="stroke: none; stroke-width: 1; stroke-dasharray: none; stroke-linecap: butt; stroke-dashoffset: 0; stroke-linejoin: miter; stroke-miterlimit: 4; fill: rgb(255,255,255); fill-rule: nonzero; opacity: 1;" vector-effect="non-scaling-stroke"  points="-16,-4 -5,-4 -5,14 8,14 8,2 16,2 16,-14 -16,-14 " />
</g>
		<g transform="matrix(0.36 0 0 0.36 -142.48 -33.09)" id="SvgjsG1016"  >
<path style="stroke: none; stroke-width: 1; stroke-dasharray: none; stroke-linecap: butt; stroke-dashoffset: 0; stroke-linejoin: miter; stroke-miterlimit: 4; fill: rgb(255,255,255); fill-rule: nonzero; opacity: 1;" vector-effect="non-scaling-stroke"  transform=" translate(-146, -47)" d="M 153 44 L 125 44 L 125 55 L 143 55 L 143 66 L 156 66 L 156 55 L 167 55 C 167 46 167 37 167 28 L 143 28 L 143 39 L 153 39 L 153 44 z" stroke-linecap="round" />
</g>
		<g transform="matrix(0.36 0 0 0.36 -147.16 -26.62)" id="SvgjsG1016"  >
<polygon style="stroke: none; stroke-width: 1; stroke-dasharray: none; stroke-linecap: butt; stroke-dashoffset: 0; stroke-linejoin: miter; stroke-miterlimit: 4; fill: rgb(255,255,255); fill-rule: nonzero; opacity: 1;" vector-effect="non-scaling-stroke"  points="5,5 -5,5 -5,-5 5,-5 " />
</g>
		<g transform="matrix(0.36 0 0 0.36 -156.51 -1.8)" id="SvgjsG1016"  >
<polygon style="stroke: none; stroke-width: 1; stroke-dasharray: none; stroke-linecap: butt; stroke-dashoffset: 0; stroke-linejoin: miter; stroke-miterlimit: 4; fill: rgb(255,255,255); fill-rule: nonzero; opacity: 1;" vector-effect="non-scaling-stroke"  points="5,5 -5,5 -5,-5 5,-5 " />
</g>
		<g transform="matrix(0.36 0 0 0.36 -140.5 12.59)" id="SvgjsG1016"  >
<polygon style="stroke: none; stroke-width: 1; stroke-dasharray: none; stroke-linecap: butt; stroke-dashoffset: 0; stroke-linejoin: miter; stroke-miterlimit: 4; fill: rgb(255,255,255); fill-rule: nonzero; opacity: 1;" vector-effect="non-scaling-stroke"  points="5.5,9 -5.5,9 -5.5,-9 5.5,-9 " />
</g>
		<g transform="matrix(0.36 0 0 0.36 -146.44 12.95)" id="SvgjsG1016"  >
<polygon style="stroke: none; stroke-width: 1; stroke-dasharray: none; stroke-linecap: butt; stroke-dashoffset: 0; stroke-linejoin: miter; stroke-miterlimit: 4; fill: rgb(255,255,255); fill-rule: nonzero; opacity: 1;" vector-effect="non-scaling-stroke"  points="5,5 -5,5 -5,-5 5,-5 " />
</g>
		<g transform="matrix(0.36 0 0 0.36 -122.7 14.39)" id="SvgjsG1016"  >
<polygon style="stroke: none; stroke-width: 1; stroke-dasharray: none; stroke-linecap: butt; stroke-dashoffset: 0; stroke-linejoin: miter; stroke-miterlimit: 4; fill: rgb(255,255,255); fill-rule: nonzero; opacity: 1;" vector-effect="non-scaling-stroke"  points="5,10 -5,10 -5,-10 5,-10 " />
</g>
		<g transform="matrix(0.36 0 0 0.36 -109.75 35.25)" id="SvgjsG1016"  >
<polygon style="stroke: none; stroke-width: 1; stroke-dasharray: none; stroke-linecap: butt; stroke-dashoffset: 0; stroke-linejoin: miter; stroke-miterlimit: 4; fill: rgb(255,255,255); fill-rule: nonzero; opacity: 1;" vector-effect="non-scaling-stroke"  points="4,3 -14,3 -14,13 14,13 14,-13 4,-13 " />
</g>
		<g transform="matrix(0.36 0 0 0.36 -131.15 32.01)" id="SvgjsG1016"  >
<polygon style="stroke: none; stroke-width: 1; stroke-dasharray: none; stroke-linecap: butt; stroke-dashoffset: 0; stroke-linejoin: miter; stroke-miterlimit: 4; fill: rgb(255,255,255); fill-rule: nonzero; opacity: 1;" vector-effect="non-scaling-stroke"  points="5.5,9 -5.5,9 -5.5,-9 5.5,-9 " />
</g>
		<g transform="matrix(0.36 0 0 0.36 -152.55 13.13)" id="SvgjsG1016"  >
<polygon style="stroke: none; stroke-width: 1; stroke-dasharray: none; stroke-linecap: butt; stroke-dashoffset: 0; stroke-linejoin: miter; stroke-miterlimit: 4; fill: rgb(255,255,255); fill-rule: nonzero; opacity: 1;" vector-effect="non-scaling-stroke"  points="5,11.5 -5,11.5 -5,-11.5 5,-11.5 " />
</g>
		<g transform="matrix(0.36 0 0 0.36 -135.47 22.48)" id="SvgjsG1016"  >
<polygon style="stroke: none; stroke-width: 1; stroke-dasharray: none; stroke-linecap: butt; stroke-dashoffset: 0; stroke-linejoin: miter; stroke-miterlimit: 4; fill: rgb(255,255,255); fill-rule: nonzero; opacity: 1;" vector-effect="non-scaling-stroke"  points="6.5,-5.5 -8.5,-5.5 -8.5,-15.5 -40.5,-15.5 -40.5,-5.5 -17.5,-5.5 -17.5,4.5 -5.5,4.5 -5.5,15.5 40.5,15.5 40.5,4.5 27.5,4.5 27.5,-5.5 16.5,-5.5 16.5,4.5 6.5,4.5 " />
</g>
		<g transform="matrix(0.36 0 0 0.36 -132.59 14.57)" id="SvgjsG1016"  >
<polygon style="stroke: none; stroke-width: 1; stroke-dasharray: none; stroke-linecap: butt; stroke-dashoffset: 0; stroke-linejoin: miter; stroke-miterlimit: 4; fill: rgb(255,255,255); fill-rule: nonzero; opacity: 1;" vector-effect="non-scaling-stroke"  points="11.5,-0.5 -1.5,-0.5 -1.5,10.5 -11.5,10.5 -11.5,-10.5 11.5,-10.5 " />
</g>
		<g transform="matrix(0.36 0 0 0.36 -122.52 34.53)" id="SvgjsG1016"  >
<path style="stroke: none; stroke-width: 1; stroke-dasharray: none; stroke-linecap: butt; stroke-dashoffset: 0; stroke-linejoin: miter; stroke-miterlimit: 4; fill: rgb(255,255,255); fill-rule: nonzero; opacity: 1;" vector-effect="non-scaling-stroke"  transform=" translate(-201.5, -235)" d="M 198 220 L 208 220 L 208 240 L 217 240 L 217 250 C 201 250 204 250 186 250 L 186 240 L 198 240 L 198 220 z" stroke-linecap="round" />
</g>
		<g transform="matrix(0.36 0 0 0.36 -159.75 5.76)" id="SvgjsG1016"  >
<polygon style="stroke: none; stroke-width: 1; stroke-dasharray: none; stroke-linecap: butt; stroke-dashoffset: 0; stroke-linejoin: miter; stroke-miterlimit: 4; fill: rgb(255,255,255); fill-rule: nonzero; opacity: 1;" vector-effect="non-scaling-stroke"  points="20,0 -10,0 -10,10 -20,10 -20,-3 -20,-3 -20,-10 20,-10 " />
</g>
		<g transform="matrix(0.36 0 0 0.36 -141.58 -5.94)" id="SvgjsG1016"  >
<polygon style="stroke: none; stroke-width: 1; stroke-dasharray: none; stroke-linecap: butt; stroke-dashoffset: 0; stroke-linejoin: miter; stroke-miterlimit: 4; fill: rgb(255,255,255); fill-rule: nonzero; opacity: 1;" vector-effect="non-scaling-stroke"  points="-12.5,0.5 -12.5,9.5 8.5,9.5 8.5,0.5 21.5,0.5 21.5,-9.5 -21.5,-9.5 -21.5,0.5 " />
</g>
		<g transform="matrix(0.36 0 0 0.36 -146.8 1.08)" id="SvgjsG1016"  >
<polygon style="stroke: none; stroke-width: 1; stroke-dasharray: none; stroke-linecap: butt; stroke-dashoffset: 0; stroke-linejoin: miter; stroke-miterlimit: 4; fill: rgb(255,255,255); fill-rule: nonzero; opacity: 1;" vector-effect="non-scaling-stroke"  points="11,5 -11,5 -11,-5 11,-5 " />
</g>
		<g transform="matrix(0.36 0 0 0.36 -138.17 3.42)" id="SvgjsG1016"  >
<polygon style="stroke: none; stroke-width: 1; stroke-dasharray: none; stroke-linecap: butt; stroke-dashoffset: 0; stroke-linejoin: miter; stroke-miterlimit: 4; fill: rgb(255,255,255); fill-rule: nonzero; opacity: 1;" vector-effect="non-scaling-stroke"  points="0,1.5 -11,1.5 -11,11.5 11,11.5 11,-11.5 0,-11.5 " />
</g>
		<g transform="matrix(0.36 0 0 0.36 -108.49 13.67)" id="SvgjsG1016"  >
<polygon style="stroke: none; stroke-width: 1; stroke-dasharray: none; stroke-linecap: butt; stroke-dashoffset: 0; stroke-linejoin: miter; stroke-miterlimit: 4; fill: rgb(255,255,255); fill-rule: nonzero; opacity: 1;" vector-effect="non-scaling-stroke"  points="10.5,7 4.5,7 4.5,15 -5.5,15 -5.5,7 -10.5,7 -10.5,-15 10.5,-15 " />
</g>
		<g transform="matrix(0.36 0 0 0.36 -117.12 17.99)" id="SvgjsG1016"  >
<polygon style="stroke: none; stroke-width: 1; stroke-dasharray: none; stroke-linecap: butt; stroke-dashoffset: 0; stroke-linejoin: miter; stroke-miterlimit: 4; fill: rgb(255,255,255); fill-rule: nonzero; opacity: 1;" vector-effect="non-scaling-stroke"  points="5.5,5 -5.5,5 -5.5,-5 5.5,-5 " />
</g>
		<g transform="matrix(0.36 0 0 0.36 -108.85 24.64)" id="SvgjsG1016"  >
<path style="stroke: none; stroke-width: 1; stroke-dasharray: none; stroke-linecap: butt; stroke-dashoffset: 0; stroke-linejoin: miter; stroke-miterlimit: 4; fill: rgb(255,255,255); fill-rule: nonzero; opacity: 1;" vector-effect="non-scaling-stroke"  transform=" translate(-239.5, -207.5)" d="M 228 217 C 235 217 243 217 251 217 L 251 198 L 241 198 L 241 207 L 228 207 L 228 217 z" stroke-linecap="round" />
</g>
		<g transform="matrix(0.36 0 0 0.36 -111.73 33.09)" id="SvgjsG1016"  >
<polygon style="stroke: none; stroke-width: 1; stroke-dasharray: none; stroke-linecap: butt; stroke-dashoffset: 0; stroke-linejoin: miter; stroke-miterlimit: 4; fill: rgb(255,255,255); fill-rule: nonzero; opacity: 1;" vector-effect="non-scaling-stroke"  points="5.5,5 -5.5,5 -5.5,-5 5.5,-5 " />
</g>
		<g transform="matrix(0.36 0 0 0.36 -171.62 -26.26)" id="SvgjsG1016"  >
<polygon style="stroke: none; stroke-width: 1; stroke-dasharray: none; stroke-linecap: butt; stroke-dashoffset: 0; stroke-linejoin: miter; stroke-miterlimit: 4; fill: rgb(255,255,255); fill-rule: nonzero; opacity: 1;" vector-effect="non-scaling-stroke"  points="17,16 -17,16 -17,-16 17,-16 " />
</g>
		<g transform="matrix(0.36 0 0 0.36 -118.38 -26.26)" id="SvgjsG1016"  >
<polygon style="stroke: none; stroke-width: 1; stroke-dasharray: none; stroke-linecap: butt; stroke-dashoffset: 0; stroke-linejoin: miter; stroke-miterlimit: 4; fill: rgb(255,255,255); fill-rule: nonzero; opacity: 1;" vector-effect="non-scaling-stroke"  points="17,16 -17,16 -17,-16 17,-16 " />
</g>
		<g transform="matrix(0.36 0 0 0.36 -171.62 26.26)" id="SvgjsG1016"  >
<polygon style="stroke: none; stroke-width: 1; stroke-dasharray: none; stroke-linecap: butt; stroke-dashoffset: 0; stroke-linejoin: miter; stroke-miterlimit: 4; fill: rgb(255,255,255); fill-rule: nonzero; opacity: 1;" vector-effect="non-scaling-stroke"  points="17,16 -17,16 -17,-16 17,-16 " />
</g>
		<g transform="matrix(0.36 0 0 0.36 -131.15 38.13)" id="SvgjsG1016"  >
<polygon style="stroke: none; stroke-width: 1; stroke-dasharray: none; stroke-linecap: butt; stroke-dashoffset: 0; stroke-linejoin: miter; stroke-miterlimit: 4; fill: rgb(255,255,255); fill-rule: nonzero; opacity: 1;" vector-effect="non-scaling-stroke"  points="5.5,5 -5.5,5 -5.5,-5 5.5,-5 " />
</g>
		<g transform="matrix(0.36 0 0 0.36 -146.62 6.47)" id="SvgjsG1016"  >
<polygon style="stroke: none; stroke-width: 1; stroke-dasharray: none; stroke-linecap: butt; stroke-dashoffset: 0; stroke-linejoin: miter; stroke-miterlimit: 4; fill: rgb(255,255,255); fill-rule: nonzero; opacity: 1;" vector-effect="non-scaling-stroke"  points="5.5,5 -5.5,5 -5.5,-5 5.5,-5 " />
</g>
		<g transform="matrix(0.36 0 0 0.36 -118.38 -4.32)" id="SvgjsG1016"  >
<polygon style="stroke: none; stroke-width: 1; stroke-dasharray: none; stroke-linecap: butt; stroke-dashoffset: 0; stroke-linejoin: miter; stroke-miterlimit: 4; fill: rgb(255,255,255); fill-rule: nonzero; opacity: 1;" vector-effect="non-scaling-stroke"  points="5,5 -5,5 -5,-5 5,-5 " />
</g>
		<g transform="matrix(0.36 0 0 0.36 -127.55 -7.55)" id="SvgjsG1016"  >
<polygon style="stroke: none; stroke-width: 1; stroke-dasharray: none; stroke-linecap: butt; stroke-dashoffset: 0; stroke-linejoin: miter; stroke-miterlimit: 4; fill: rgb(255,255,255); fill-rule: nonzero; opacity: 1;" vector-effect="non-scaling-stroke"  points="5.5,5 -5.5,5 -5.5,-5 5.5,-5 " />
</g>
		<g transform="matrix(0.36 0 0 0.36 -106.51 5.4)" id="SvgjsG1016"  >
<polygon style="stroke: none; stroke-width: 1; stroke-dasharray: none; stroke-linecap: butt; stroke-dashoffset: 0; stroke-linejoin: miter; stroke-miterlimit: 4; fill: rgb(255,255,255); fill-rule: nonzero; opacity: 1;" vector-effect="non-scaling-stroke"  points="5,5 -5,5 -5,-5 5,-5 " />
</g>
		<g transform="matrix(0.36 0 0 0.36 -185.29 -40.47)" id="SvgjsG1016"  >
<polygon style="stroke: none; stroke-width: 1; stroke-dasharray: none; stroke-linecap: butt; stroke-dashoffset: 0; stroke-linejoin: miter; stroke-miterlimit: 4; fill: rgb(255,255,255); fill-rule: nonzero; opacity: 1;" vector-effect="non-scaling-stroke"  points="-27,26.5 -27,-26.5 27,-26.5 27,-16.5 -17,-16.5 -17,26.5 " />
</g>
		<g transform="matrix(0.36 0 0 0.36 -104.71 -40.47)" id="SvgjsG1016"  >
<polygon style="stroke: none; stroke-width: 1; stroke-dasharray: none; stroke-linecap: butt; stroke-dashoffset: 0; stroke-linejoin: miter; stroke-miterlimit: 4; fill: rgb(255,255,255); fill-rule: nonzero; opacity: 1;" vector-effect="non-scaling-stroke"  points="27,26.5 27,-26.5 -27,-26.5 -27,-16.5 17,-16.5 17,26.5 " />
</g>
		<g transform="matrix(0.36 0 0 0.36 -185.29 40.47)" id="SvgjsG1016"  >
<polygon style="stroke: none; stroke-width: 1; stroke-dasharray: none; stroke-linecap: butt; stroke-dashoffset: 0; stroke-linejoin: miter; stroke-miterlimit: 4; fill: rgb(255,255,255); fill-rule: nonzero; opacity: 1;" vector-effect="non-scaling-stroke"  points="-27,-26.5 -27,26.5 27,26.5 27,16.5 -17,16.5 -17,-26.5 " />
</g>
		<g transform="matrix(0.36 0 0 0.36 -104.71 40.47)" id="SvgjsG1016"  >
<polygon style="stroke: none; stroke-width: 1; stroke-dasharray: none; stroke-linecap: butt; stroke-dashoffset: 0; stroke-linejoin: miter; stroke-miterlimit: 4; fill: rgb(255,255,255); fill-rule: nonzero; opacity: 1;" vector-effect="non-scaling-stroke"  points="27,-26.5 27,26.5 -27,26.5 -27,16.5 17,16.5 17,-26.5 " />
</g>
		<g transform="matrix(1 0 0 1 60 0.5)" id="SvgjsG1017"  >
<rect style="stroke: none; stroke-width: 1; stroke-dasharray: none; stroke-linecap: butt; stroke-dashoffset: 0; stroke-linejoin: miter; stroke-miterlimit: 4; fill: rgb(255,255,255); fill-rule: nonzero; opacity: 1;" vector-effect="non-scaling-stroke"  x="-135" y="-36.5" rx="5" ry="5" width="270" height="73" />
</g>
		<g transform="matrix(2.5 0 0 2.5 60 -10.53)" id="SvgjsG1018"  >
<path style="stroke: none; stroke-width: 1; stroke-dasharray: none; stroke-linecap: butt; stroke-dashoffset: 0; stroke-linejoin: miter; stroke-miterlimit: 4; fill: rgb(17,17,17); fill-rule: nonzero; opacity: 1;" vector-effect="non-scaling-stroke"  transform=" translate(-51.53, -13.19)" d="M 4.7 9.06 L 4.72 10.620000000000001 L 4.72 11.88 L 9 11.88 Q 9.16 12.48 9.16 13.190000000000001 Q 9.16 13.900000000000002 9 14.500000000000002 L 4.72 14.500000000000002 L 4.72 20 Q 4.08 20.12 3.1199999999999997 20.12 Q 2.1599999999999993 20.12 1.5199999999999996 20 L 1.5199999999999996 6.460000000000001 L 1.6599999999999997 6.340000000000001 L 10.22 6.340000000000001 Q 10.34 6.840000000000001 10.34 7.590000000000001 Q 10.34 8.34 9.93 8.700000000000001 Q 9.52 9.060000000000002 8.64 9.06 L 4.700000000000001 9.06 z M 22.020000000000003 10.56 Q 22.020000000000003 11.22 21.820000000000004 11.81 Q 21.620000000000005 12.4 21.290000000000003 12.870000000000001 Q 20.96 13.340000000000002 20.51 13.690000000000001 Q 20.060000000000002 14.040000000000001 19.580000000000002 14.22 Q 20.62 14.600000000000001 21.12 16.060000000000002 L 21.720000000000002 17.76 Q 22.060000000000002 18.76 22.720000000000002 19.240000000000002 Q 22.42 19.64 21.820000000000004 19.910000000000004 Q 21.220000000000006 20.180000000000007 20.500000000000004 20.180000000000003 Q 19.78 20.18 19.380000000000003 19.770000000000003 Q 18.980000000000004 19.360000000000007 18.640000000000004 18.340000000000003 L 17.920000000000005 16.240000000000002 Q 17.700000000000006 15.640000000000002 17.330000000000005 15.320000000000002 Q 16.960000000000004 15.000000000000002 16.220000000000006 15.000000000000002 L 15.400000000000006 15.000000000000002 L 15.400000000000006 20 Q 14.760000000000005 20.12 13.800000000000006 20.12 Q 12.840000000000007 20.12 12.220000000000006 20 L 12.220000000000006 6.4399999999999995 L 12.360000000000007 6.3 Q 14.100000000000007 6.26 15.290000000000006 6.24 Q 16.480000000000004 6.220000000000001 17.160000000000007 6.220000000000001 Q 18.26000000000001 6.220000000000001 19.160000000000007 6.49 Q 20.060000000000006 6.76 20.69000000000001 7.300000000000001 Q 21.32000000000001 7.840000000000002 21.67000000000001 8.66 Q 22.020000000000007 9.479999999999999 22.02000000000001 10.56 z M 15.400000000000002 8.62 L 15.400000000000002 12.54 Q 16.3 12.54 16.94 12.51 Q 17.580000000000002 12.48 17.970000000000002 12.27 Q 18.360000000000003 12.059999999999999 18.560000000000002 11.68 Q 18.76 11.3 18.76 10.58 Q 18.76 8.64 16.880000000000003 8.64 L 16.050000000000004 8.64 Q 16.050000000000004 8.64 15.400000000000004 8.620000000000001 z M 24.56 20 L 24.56 6.34 Q 25.18 6.22 26.16 6.22 Q 27.14 6.22 27.78 6.34 L 27.78 20 Q 27.14 20.12 26.16 20.12 Q 25.18 20.12 24.56 20 z M 34 15.96 L 33.98 17.400000000000002 L 33.98 17.42 Q 34.9 17.380000000000003 35.459999999999994 17.380000000000003 L 40.099999999999994 17.380000000000003 Q 40.099999999999994 18.12 40.03999999999999 18.520000000000003 Q 39.79999999999999 20.060000000000002 37.99999999999999 20.060000000000002 L 32.67999999999999 20.060000000000002 Q 31.819999999999993 20.060000000000002 31.32999999999999 19.560000000000002 Q 30.83999999999999 19.060000000000002 30.839999999999993 18.200000000000003 L 30.839999999999993 6.480000000000002 L 30.979999999999993 6.3400000000000025 L 39.599999999999994 6.3400000000000025 Q 39.71999999999999 6.920000000000003 39.71999999999999 7.600000000000002 Q 39.71999999999999 8.280000000000001 39.43999999999999 9.020000000000003 L 33.97999999999999 9.020000000000003 L 33.99999999999999 10.460000000000003 L 33.99999999999999 11.860000000000003 Q 34.519999999999996 11.840000000000003 35.35999999999999 11.840000000000003 L 38.419999999999995 11.840000000000003 Q 38.599999999999994 12.400000000000004 38.599999999999994 13.120000000000003 Q 38.599999999999994 13.840000000000002 38.419999999999995 14.440000000000003 L 33.99999999999999 14.440000000000003 L 33.99999999999999 15.960000000000003 z M 53.08 6.199999999999999 L 53.22 6.339999999999999 L 53.22 19.939999999999998 Q 52.42 20.119999999999997 51.33 20.119999999999997 Q 50.239999999999995 20.119999999999997 49.4 19.999999999999996 L 46.26 12.839999999999996 Q 45.699999999999996 11.619999999999996 45.12 10.019999999999996 L 45.059999999999995 10.039999999999996 Q 45.3 12.959999999999996 45.3 16.019999999999996 L 45.3 19.999999999999996 Q 44.68 20.119999999999997 43.8 20.119999999999997 Q 42.919999999999995 20.119999999999997 42.32 19.999999999999996 L 42.32 6.399999999999997 Q 43.08 6.219999999999997 44.15 6.219999999999997 Q 45.22 6.219999999999997 46.059999999999995 6.339999999999997 L 49.16 13.479999999999997 Q 50 15.459999999999997 50.4 16.519999999999996 L 50.48 16.479999999999997 Q 50.239999999999995 13.699999999999998 50.239999999999995 10.579999999999997 L 50.239999999999995 8.139999999999997 Q 50.239999999999995 7.099999999999997 50.66 6.649999999999997 Q 51.08 6.199999999999997 52.019999999999996 6.199999999999997 L 53.08 6.199999999999997 z M 65.08 19.12 Q 64.44 19.64 63.4 19.880000000000003 Q 62.36 20.120000000000005 61.1 20.12 Q 60.480000000000004 20.12 59.31 20.1 Q 58.14 20.080000000000002 56.38 20.040000000000003 L 56.24 19.900000000000002 L 56.24 6.440000000000001 L 56.38 6.300000000000002 Q 57.54 6.260000000000002 58.790000000000006 6.240000000000002 Q 60.04000000000001 6.220000000000002 61.42000000000001 6.220000000000002 Q 63.12000000000001 6.220000000000002 64.26 6.7600000000000025 Q 65.4 7.3000000000000025 66.08 8.240000000000002 Q 66.75999999999999 9.180000000000001 67.03999999999999 10.450000000000003 Q 67.32 11.720000000000004 67.32 13.180000000000003 Q 67.32 15.180000000000003 66.86 16.640000000000004 Q 66.4 18.100000000000005 65.08 19.120000000000005 z M 61.4 17.62 Q 64.03999999999999 17.62 64.03999999999999 13.18 Q 64.03999999999999 8.719999999999999 61.39999999999999 8.719999999999999 L 60.26999999999999 8.719999999999999 Q 60.26999999999999 8.719999999999999 59.41999999999999 8.7 L 59.41999999999999 17.64 Q 59.77999999999999 17.62 60.26999999999999 17.62 L 61.39999999999999 17.62 z M 74.36 15.719999999999999 L 72.78 15.719999999999999 L 72.78 20 Q 72.14 20.12 71.18 20.12 Q 70.2 20.12 69.58000000000001 20 L 69.58000000000001 6.4399999999999995 L 69.72000000000001 6.3 Q 71.46000000000001 6.26 72.61000000000001 6.24 Q 73.76000000000002 6.220000000000001 74.36000000000001 6.220000000000001 Q 75.46000000000001 6.220000000000001 76.37000000000002 6.5200000000000005 Q 77.28000000000003 6.82 77.92000000000002 7.420000000000001 Q 78.56 8.020000000000001 78.91000000000001 8.91 Q 79.26000000000002 9.799999999999999 79.26 10.96 Q 79.25999999999999 12.120000000000003 78.9 13.010000000000002 Q 78.54000000000002 13.9 77.9 14.500000000000002 Q 77.25999999999999 15.100000000000003 76.35000000000001 15.410000000000002 Q 75.44000000000003 15.72 74.36000000000001 15.720000000000002 z M 72.78 8.66 L 72.78 13.32 Q 73.34 13.3 73.67 13.290000000000001 Q 74 13.280000000000001 74.10000000000001 13.280000000000001 Q 74.64000000000001 13.280000000000001 75.00000000000001 13.090000000000002 Q 75.36000000000001 12.900000000000002 75.58000000000001 12.590000000000002 Q 75.80000000000001 12.280000000000001 75.9 11.860000000000001 Q 76 11.440000000000001 76 10.98 Q 76 10.540000000000001 75.9 10.120000000000001 Q 75.80000000000001 9.700000000000001 75.59 9.38 Q 75.38 9.06 75.04 8.870000000000001 Q 74.70000000000002 8.680000000000001 74.24000000000001 8.680000000000001 L 73.42000000000002 8.680000000000001 Q 73.42000000000002 8.680000000000001 72.78000000000002 8.660000000000002 z M 84.5 15.96 L 84.48 17.400000000000002 L 84.48 17.42 Q 85.4 17.380000000000003 85.96000000000001 17.380000000000003 L 90.60000000000001 17.380000000000003 Q 90.60000000000001 18.12 90.54 18.520000000000003 Q 90.30000000000001 20.060000000000002 88.5 20.060000000000002 L 83.18 20.060000000000002 Q 82.32000000000001 20.060000000000002 81.83000000000001 19.560000000000002 Q 81.34000000000002 19.060000000000002 81.34000000000002 18.200000000000003 L 81.34000000000002 6.480000000000002 L 81.48000000000002 6.3400000000000025 L 90.10000000000002 6.3400000000000025 Q 90.22000000000003 6.920000000000003 90.22000000000003 7.600000000000002 Q 90.22000000000003 8.280000000000001 89.94000000000003 9.020000000000003 L 84.48000000000003 9.020000000000003 L 84.50000000000003 10.460000000000003 L 84.50000000000003 11.860000000000003 Q 85.02000000000002 11.840000000000003 85.86000000000003 11.840000000000003 L 88.92000000000003 11.840000000000003 Q 89.10000000000004 12.400000000000004 89.10000000000004 13.120000000000003 Q 89.10000000000004 13.840000000000002 88.92000000000003 14.440000000000003 L 84.50000000000003 14.440000000000003 L 84.50000000000003 15.960000000000003 z M 98.00000000000001 8.98 L 98.02000000000001 10.46 L 98.02000000000001 20 Q 97.34 20.12 96.4 20.12 Q 95.46000000000001 20.12 94.82000000000001 20 L 94.82000000000001 8.98 L 93.54 9 L 91.48 9 Q 91.36 8.42 91.36 7.67 Q 91.36 6.92 91.48 6.34 L 101.38000000000001 6.34 Q 101.54 6.859999999999999 101.54 7.6 Q 101.54 8.34 101.14 8.67 Q 100.74 9 99.86 9 L 99.28 9 L 98.02 8.98 L 98 8.98 z" stroke-linecap="round" />
</g>
		<g transform="matrix(0.84 0 0 0.84 35 23.53)" id="SvgjsG1019"  >
<path style="stroke: none; stroke-width: 1; stroke-dasharray: none; stroke-linecap: butt; stroke-dashoffset: 0; stroke-linejoin: miter; stroke-miterlimit: 4; fill: rgb(17,17,17); fill-rule: nonzero; opacity: 1;" vector-effect="non-scaling-stroke"  transform=" translate(-119.02, -13.71)" d="M 2.3529 8.102 L 0.3609 8.102 L 0.3609 5.9763 L 6.1898 5.9763 L 6.1898 8.102 L 3.6497 8.102 L 4.19783 8.503070000000001 L 4.19783 19.987070000000003 L 2.3529299999999997 19.987070000000003 L 2.3529299999999997 8.102070000000003 z M 10.641686631016043 17.9011 L 12.794086631016043 17.9011 L 12.794086631016043 6.0031 L 14.638986631016042 6.0031 L 14.638986631016042 18.6771 C 14.638986631016042 19.42576 14.024016631016043 20.0006 13.315486631016043 20.0006 L 10.133686631016044 20.013969 C 9.385026631016045 20.013969 8.810186631016045 19.425729 8.810186631016045 18.677069 L 8.810186631016045 6.418068999999999 L 8.796817631016044 6.418068999999999 L 8.462597631016044 6.003628999999999 L 10.641697631016044 6.003628999999999 L 10.641697631016044 17.901629 z M 22.366311978609627 6.016 L 25.454511978609627 6.016 L 26.69781197860963 10.735299999999999 L 27.954511978609627 6.015999999999999 L 30.70851197860963 6.015999999999999 L 30.695142978609628 20.012999999999998 L 28.86354297860963 20.012999999999998 L 28.86354297860963 9.745999999999999 L 26.69774297860963 17.874299999999998 L 26.69774297860963 17.887669 L 26.69774297860963 17.874299999999998 L 26.69774297860963 17.887669 L 26.69774297860963 17.874299999999998 L 24.54534297860963 9.745999999999999 L 24.54534297860963 20.012999999999998 L 22.70044297860963 20.012999999999998 L 22.70044297860963 6.416999999999998 z M 35.56153475935829 15.8021 L 37.446534759358286 15.8021 L 36.51070475935828 8.1283 z M 33.19518475935829 20.026738 L 34.866284759358294 6.430738000000002 L 34.53206475935829 6.029668000000002 L 38.10156475935829 6.029668000000002 L 39.82616475935829 20.026668 L 37.96786475935829 20.026668 L 37.71385475935829 17.914368 L 34.75935475935829 17.900999 L 35.25400475935829 18.288698999999998 L 35.040104759358286 20.026698999999997 L 33.19520475935828 20.026698999999997 z M 47.92781229946524 7.34 L 47.92781229946524 10.2277 L 46.096212299465236 10.2277 L 46.096212299465236 8.115400000000001 L 43.39571229946524 8.115400000000001 L 43.93047229946524 8.529840000000002 L 43.93047229946524 10.227740000000002 L 47.92777229946524 15.134140000000002 L 47.92777229946524 17.246440000000003 L 47.92777229946524 18.690340000000003 C 47.92777229946524 19.3989 47.35290229946524 20.013840000000002 46.60427229946524 20.013840000000002 L 43.422472299465234 20.013840000000002 C 42.67381229946523 20.013840000000002 42.09897229946523 19.398870000000002 42.09897229946523 18.690340000000003 L 42.09897229946523 15.709040000000002 L 43.93057229946523 15.709040000000002 L 43.93057229946523 17.90154 L 46.09637229946523 17.90154 L 46.09637229946523 15.789240000000001 L 42.09907229946523 10.882840000000002 L 42.09907229946523 7.340040000000002 C 42.09907229946523 6.591380000000002 42.673942299465224 6.016540000000002 43.42257229946523 6.016540000000002 L 46.60437229946523 6.016540000000002 C 47.353032299465234 6.016540000000002 47.927872299465236 6.5914100000000015 47.927872299465236 7.340040000000002 z M 51.751348128342244 6.003 L 55.334248128342246 6.003 L 55.334248128342246 8.1153 L 51.71124812834225 8.1153 L 52.25937812834225 8.51637 C 52.205902128342245 10.86927 52.205902128342245 15.54847 52.25937812834225 17.88807 L 55.33427812834225 17.88807 L 55.33427812834225 20.00037 L 51.751378128342246 20.00037 C 51.002718128342245 20.00037 50.42787812834224 19.4255 50.42787812834224 18.67687 L 50.42787812834224 7.326870000000001 C 50.42787812834224 6.578210000000001 51.00274812834224 6.003370000000001 51.751378128342246 6.003370000000001 z M 59.39842673796791 17.9011 L 61.56422673796791 17.9011 L 61.56422673796791 8.1284 L 58.86372673796791 8.1284 L 59.39848673796791 8.54284 L 59.39848673796791 17.901139999999998 z M 63.39572673796791 7.34 L 63.39572673796791 18.689999999999998 C 63.39572673796791 19.43866 62.820856737967915 20.013499999999997 62.07222673796791 20.013499999999997 L 58.89042673796791 20.013499999999997 C 58.141766737967906 20.013499999999997 57.566926737967904 19.438629999999996 57.566926737967904 18.689999999999998 L 57.566926737967904 7.339999999999998 C 57.566926737967904 6.631439999999998 58.1417967379679 6.016499999999998 58.89042673796791 6.016499999999998 L 62.07222673796791 6.016499999999998 C 62.82088673796791 6.016499999999998 63.39572673796791 6.631469999999998 63.39572673796791 7.339999999999998 z M 67.71386256684492 8.102 L 65.72186256684492 8.102 L 65.72186256684492 5.9763 L 71.55076256684492 5.9763 L 71.55076256684492 8.102 L 69.01066256684493 8.102 L 69.55879256684493 8.503070000000001 L 69.55879256684493 19.987070000000003 L 67.71389256684493 19.987070000000003 L 67.71389256684493 8.102070000000003 z M 75.02677540106953 15.8021 L 76.91177540106953 15.8021 L 75.97594540106954 8.1283 z M 72.66042540106952 20.026738 L 74.33152540106951 6.430738000000002 L 73.99730540106951 6.029668000000002 L 77.56680540106952 6.029668000000002 L 79.29140540106951 20.026668 L 77.43310540106951 20.026668 L 77.17909540106952 17.914368 L 74.22459540106952 17.900999 L 74.71924540106951 18.288698999999998 L 74.50534540106952 20.026698999999997 L 72.66044540106952 20.026698999999997 z M 81.77807363636364 21.4572 L 82.54010363636364 20.0133 L 82.13903363636364 20.0133 L 82.13903363636364 17.994600000000002 L 83.97063363636363 17.994600000000002 L 83.97063363636363 20.0133 L 83.12838363636362 21.4572 L 81.77808363636362 21.4572 z M 97.56684973262033 7.34 L 97.56684973262033 10.2277 L 95.73524973262033 10.2277 L 95.73524973262033 8.115400000000001 L 93.03474973262033 8.115400000000001 L 93.56950973262033 8.529840000000002 L 93.56950973262033 10.227740000000002 L 97.56680973262033 15.134140000000002 L 97.56680973262033 17.246440000000003 L 97.56680973262033 18.690340000000003 C 97.56680973262033 19.3989 96.99193973262032 20.013840000000002 96.24330973262033 20.013840000000002 L 93.06150973262034 20.013840000000002 C 92.31284973262034 20.013840000000002 91.73800973262034 19.398870000000002 91.73800973262034 18.690340000000003 L 91.73800973262034 15.709040000000002 L 93.56960973262034 15.709040000000002 L 93.56960973262034 17.90154 L 95.73540973262034 17.90154 L 95.73540973262034 15.789240000000001 L 91.73810973262034 10.882840000000002 L 91.73810973262034 7.340040000000002 C 91.73810973262034 6.591380000000002 92.31297973262035 6.016540000000002 93.06160973262034 6.016540000000002 L 96.24340973262034 6.016540000000002 C 96.99206973262034 6.016540000000002 97.56690973262033 6.5914100000000015 97.56690973262033 7.340040000000002 z M 101.9519090909091 19.973262 L 100.1070090909091 19.973262 L 100.1070090909091 6.390261999999998 L 99.7727890909091 5.975821999999998 L 101.9518890909091 5.975821999999998 L 101.9518890909091 19.972821999999997 z M 104.87967721925133 6.43 L 104.54545721925133 6.01556 L 109.79945721925134 6.01556 L 109.79945721925134 8.12786 L 106.17645721925133 8.12786 L 106.72458721925133 8.542300000000001 L 106.72458721925133 11.951400000000001 L 108.89038721925134 11.951400000000001 L 108.89038721925134 14.077100000000002 L 106.17648721925134 14.077100000000002 L 106.72461721925134 14.478170000000002 L 106.72461721925134 17.90067 L 109.79951721925134 17.90067 L 109.79951721925134 20.012970000000003 L 104.87971721925135 20.012970000000003 L 104.87971721925135 17.90067 L 104.87971721925135 14.077170000000002 L 104.87971721925135 11.951470000000002 L 104.87971721925135 6.430070000000002 z M 112.08556331550801 6.016 L 115.17376331550801 6.016 L 116.41706331550802 10.735299999999999 L 117.67376331550801 6.015999999999999 L 120.42776331550802 6.015999999999999 L 120.41439431550802 20.012999999999998 L 118.58279431550802 20.012999999999998 L 118.58279431550802 9.745999999999999 L 116.41699431550802 17.874299999999998 L 116.41699431550802 17.887669 L 116.41699431550802 17.874299999999998 L 116.41699431550802 17.887669 L 116.41699431550802 17.874299999999998 L 114.26459431550802 9.745999999999999 L 114.26459431550802 20.012999999999998 L 112.41969431550802 20.012999999999998 L 112.41969431550802 6.416999999999998 z M 125.20057593582885 11.9251 L 127.35297593582885 11.9251 L 127.35297593582885 8.0882 L 124.65247593582885 8.0882 L 125.20060593582885 8.502640000000001 L 125.20060593582885 11.92514 z M 129.18447593582886 7.313000000000001 L 129.18447593582886 12.7141 C 129.18447593582886 13.42266 128.60960593582885 14.0376 127.86097593582886 14.0376 L 124.65237593582886 14.0376 L 125.20050593582886 14.45204 L 125.20050593582886 19.98684 L 123.35560593582886 19.98684 L 123.35560593582886 6.390840000000001 L 123.02138593582886 5.976400000000001 L 127.86098593582886 5.976400000000001 C 128.60964593582887 5.976400000000001 129.18448593582886 6.564640000000001 129.18448593582886 7.313300000000001 z M 133.34229037433153 11.9118 L 135.49469037433153 11.9118 L 135.49469037433153 8.0749 L 132.79419037433152 8.0749 L 133.3423203743315 8.48934 L 133.3423203743315 11.91184 z M 137.32619037433153 7.2989999999999995 L 137.32619037433153 12.700099999999999 C 137.32619037433153 13.448759999999998 136.75132037433153 14.023599999999998 136.00269037433154 14.023599999999998 L 135.74868037433154 14.023599999999998 L 137.32618037433153 19.9728 L 135.42778037433152 19.9728 L 133.85028037433153 14.023599999999998 L 132.79418037433155 14.023599999999998 L 133.34231037433153 14.438039999999999 L 133.34231037433153 19.972839999999998 L 131.49741037433154 19.972839999999998 L 131.49741037433154 8.074839999999998 L 131.49741037433154 6.3769399999999985 L 131.16319037433155 5.962499999999999 L 136.00279037433154 5.9758689999999985 C 136.75145037433154 5.9758689999999985 137.32629037433153 6.550738999999998 137.32629037433153 7.299368999999999 z M 139.91978417112298 6.43 L 139.585564171123 6.01556 L 144.839564171123 6.01556 L 144.839564171123 8.12786 L 141.216564171123 8.12786 L 141.76469417112298 8.542300000000001 L 141.76469417112298 11.951400000000001 L 143.93049417112297 11.951400000000001 L 143.93049417112297 14.077100000000002 L 141.21659417112298 14.077100000000002 L 141.76472417112296 14.478170000000002 L 141.76472417112296 17.90067 L 144.83962417112298 17.90067 L 144.83962417112298 20.012970000000003 L 139.91982417112297 20.012970000000003 L 139.91982417112297 17.90067 L 139.91982417112297 14.077170000000002 L 139.91982417112297 11.951470000000002 L 139.91982417112297 6.430070000000002 z M 154.42517112299464 19.973262 L 152.58027112299465 19.973262 L 152.58027112299465 6.390261999999998 L 152.24605112299466 5.975821999999998 L 154.42515112299466 5.975821999999998 L 154.42515112299466 19.972821999999997 z M 159.21123636363637 17.9011 L 161.36363636363637 17.9011 L 161.36363636363637 8.1284 L 158.66313636363637 8.1284 L 159.21126636363635 8.54284 L 159.21126636363635 17.901139999999998 z M 163.20853636363637 7.34 L 163.20853636363637 18.689999999999998 C 163.20853636363637 19.43866 162.62029636363636 20.013499999999997 161.87163636363636 20.013499999999997 L 157.36633636363635 20.013499999999997 L 157.36633636363635 17.901199999999996 L 157.36633636363635 6.430199999999996 L 157.03211636363636 6.015759999999996 L 161.87171636363635 6.015759999999996 C 162.60700636363634 6.015759999999996 163.20861636363634 6.630729999999996 163.20861636363634 7.339259999999996 z M 165.8689820320856 6.43 L 165.5347620320856 6.01556 L 170.7887620320856 6.01556 L 170.7887620320856 8.12786 L 167.1657620320856 8.12786 L 167.7138920320856 8.542300000000001 L 167.7138920320856 11.951400000000001 L 169.8796920320856 11.951400000000001 L 169.8796920320856 14.077100000000002 L 167.1657920320856 14.077100000000002 L 167.71392203208558 14.478170000000002 L 167.71392203208558 17.90067 L 170.7888220320856 17.90067 L 170.7888220320856 20.012970000000003 L 165.86902203208558 20.012970000000003 L 165.86902203208558 17.90067 L 165.86902203208558 14.077170000000002 L 165.86902203208558 11.951470000000002 L 165.86902203208558 6.430070000000002 z M 173.0748671122995 6.003 L 175.6951671122995 6.003 L 177.40636711229948 13.636700000000001 L 177.40636711229948 6.016400000000001 L 179.2379671122995 6.016400000000001 L 179.2379671122995 20.0004 L 176.95186711229948 20.0004 L 175.25396711229948 12.406799999999999 L 175.25396711229948 20.0138 L 173.40906711229948 20.0138 L 173.40906711229948 6.4178 z M 183.55610855614978 8.102 L 181.5641085561498 8.102 L 181.5641085561498 5.9763 L 187.3930085561498 5.9763 L 187.3930085561498 8.102 L 184.8529085561498 8.102 L 185.40103855614979 8.503070000000001 L 185.40103855614979 19.987070000000003 L 183.5561385561498 19.987070000000003 L 183.5561385561498 8.102070000000003 z M 191.85832620320858 19.973262 L 190.01342620320858 19.973262 L 190.01342620320858 6.390261999999998 L 189.6792062032086 5.975821999999998 L 191.8583062032086 5.975821999999998 L 191.8583062032086 19.972821999999997 z M 194.77272721925138 6.390000000000001 L 194.4385072192514 5.975560000000001 L 199.69250721925138 5.975560000000001 L 199.69250721925138 8.087860000000001 L 196.0695072192514 8.087860000000001 L 196.61763721925138 8.502300000000002 L 196.61763721925138 11.924800000000001 L 198.77003721925138 11.924800000000001 L 198.77003721925138 14.0371 L 196.06953721925137 14.0371 L 196.61766721925136 14.451540000000001 L 196.61766721925136 19.97294 L 194.77276721925136 19.97294 L 194.77276721925136 6.389940000000001 z M 204.03747058823532 19.973262 L 202.19257058823533 19.973262 L 202.19257058823533 6.390261999999998 L 201.85835058823534 5.975821999999998 L 204.03745058823534 5.975821999999998 L 204.03745058823534 19.972821999999997 z M 208.0080326203209 6.003 L 211.5909326203209 6.003 L 211.5909326203209 8.1153 L 207.9679326203209 8.1153 L 208.5160626203209 8.51637 C 208.4625866203209 10.86927 208.4625866203209 15.54847 208.5160626203209 17.88807 L 211.5909626203209 17.88807 L 211.5909626203209 20.00037 L 208.0080626203209 20.00037 C 207.2594026203209 20.00037 206.68456262032092 19.4255 206.68456262032092 18.67687 L 206.68456262032092 7.326870000000001 C 206.68456262032092 6.578210000000001 207.25943262032092 6.003370000000001 208.0080626203209 6.003370000000001 z M 216.0428181818182 15.8021 L 217.9278181818182 15.8021 L 216.9919881818182 8.1283 z M 213.67646818181822 20.026738 L 215.34756818181822 6.430738000000002 L 215.01334818181823 6.029668000000002 L 218.58284818181824 6.029668000000002 L 220.30744818181824 20.026668 L 218.44914818181823 20.026668 L 218.19513818181824 17.914368 L 215.24063818181824 17.900999 L 215.73528818181825 18.288698999999998 L 215.52138818181825 20.026698999999997 L 213.67648818181826 20.026698999999997 z M 224.66578181818184 17.9011 L 226.81818181818184 17.9011 L 226.81818181818184 8.1284 L 224.11768181818184 8.1284 L 224.66581181818182 8.54284 L 224.66581181818182 17.901139999999998 z M 228.66308181818184 7.34 L 228.66308181818184 18.689999999999998 C 228.66308181818184 19.43866 228.07484181818182 20.013499999999997 227.32618181818185 20.013499999999997 L 222.82088181818185 20.013499999999997 L 222.82088181818185 17.901199999999996 L 222.82088181818185 6.430199999999996 L 222.48666181818186 6.015759999999996 L 227.32626181818185 6.015759999999996 C 228.06155181818184 6.015759999999996 228.66316181818183 6.630729999999996 228.66316181818183 7.339259999999996 z M 233.42249732620323 15.8021 L 235.30749732620322 15.8021 L 234.3716673262032 8.1283 z M 231.05614732620325 20.026738 L 232.72724732620324 6.430738000000002 L 232.39302732620325 6.029668000000002 L 235.96252732620326 6.029668000000002 L 237.68712732620327 20.026668 L 235.82882732620325 20.026668 L 235.57481732620326 17.914368 L 232.62031732620326 17.900999 L 233.11496732620327 18.288698999999998 L 232.90106732620328 20.026698999999997 L 231.05616732620328 20.026698999999997 z" stroke-linecap="round" />
</g>
</g>
</g>
</svg>